<svg viewBox="0 0 24 24" xmlns="http://www.w3.org/2000/svg" fill="#fff" width="24px" height="24px">
  <path d="M 7.35 14.831 C 7.356 15.145 7.456 15.753 7.606 16.229 C 7.93 17.253 8.473 18.194 9.199 18.986 C 9.977 19.842 10.927 20.523 11.986 20.987 C 13.139 21.495 14.386 21.754 15.646 21.747 C 16.906 21.75 18.152 21.487 19.303 20.975 C 20.361 20.507 21.31 19.822 22.088 18.965 C 22.812 18.171 23.355 17.228 23.68 16.203 C 23.992 15.21 24.077 14.16 23.93 13.129 C 23.79 12.142 23.443 11.195 22.914 10.35 C 22.423 9.564 21.796 8.872 21.062 8.307 L 21.064 8.307 L 13.566 2.55 L 13.546 2.535 C 13.054 2.157 12.227 2.159 11.686 2.537 C 11.139 2.919 11.077 3.552 11.563 3.952 L 11.562 3.953 L 14.688 6.496 L 5.158 6.506 L 5.145 6.506 C 4.357 6.507 3.6 7.024 3.45 7.678 C 3.296 8.343 3.83 8.895 4.65 8.898 L 4.65 8.9 L 9.48 8.89 L 0.86 15.507 L 0.826 15.532 C 0.013 16.154 -0.249 17.19 0.263 17.845 C 0.783 18.512 1.888 18.513 2.71 17.849 L 7.414 14 C 7.414 14 7.345 14.52 7.351 14.831 L 7.35 14.831 Z M 19.44 16.572 C 18.47 17.56 17.114 18.12 15.645 18.122 C 14.175 18.126 12.818 17.57 11.848 16.584 C 11.39 16.124 11.037 15.571 10.812 14.962 C 10.396 13.803 10.498 12.521 11.094 11.443 C 11.387 10.917 11.778 10.451 12.247 10.072 C 13.189 9.304 14.388 8.889 15.643 8.887 C 16.899 8.885 18.098 9.297 19.041 10.062 C 19.521 10.453 19.911 10.916 20.193 11.429 C 20.485 11.955 20.663 12.536 20.715 13.135 C 20.768 13.749 20.686 14.367 20.476 14.946 C 20.251 15.556 19.898 16.111 19.441 16.572" style="visibility: hidden;" transform="matrix(1, 0, 0, 1, 0, 4.440892098500626e-16)"/>
  <path style="visibility: hidden;" d="M 12.51 13.214 C 12.556 12.414 12.948 11.708 13.54 11.208 C 14.161 10.692 14.945 10.412 15.752 10.418 C 16.602 10.418 17.383 10.718 17.963 11.208 C 18.555 11.708 18.946 12.414 18.991 13.213 C 19.036 14.036 18.706 14.799 18.126 15.366 C 17.487 15.976 16.635 16.313 15.752 16.304 C 14.868 16.313 14.015 15.976 13.376 15.366 C 12.796 14.799 12.466 14.036 12.511 13.214" transform="matrix(1, 0, 0, 1, 0, 4.440892098500626e-16)"/>
  <g transform="matrix(0.04923400282859803, 0, 0, 0.04923400282859803, 0.011520001105964184, 0.011520001105964628)" style="">
    <g>
      <path d="M308.1,277.95c0,35.7-28.9,64.6-64.6,64.6s-64.6-28.9-64.6-64.6s28.9-64.6,64.6-64.6S308.1,242.25,308.1,277.95z&#10;&#9;&#9;&#9; M440.3,116.05c25.8,0,46.7,20.9,46.7,46.7v122.4v103.8c0,27.5-22.3,49.8-49.8,49.8H49.8c-27.5,0-49.8-22.3-49.8-49.8v-103.9&#10;&#9;&#9;&#9;v-122.3l0,0c0-25.8,20.9-46.7,46.7-46.7h93.4l4.4-18.6c6.7-28.8,32.4-49.2,62-49.2h74.1c29.6,0,55.3,20.4,62,49.2l4.3,18.6H440.3z&#10;&#9;&#9;&#9; M97.4,183.45c0-12.9-10.5-23.4-23.4-23.4c-13,0-23.5,10.5-23.5,23.4s10.5,23.4,23.4,23.4C86.9,206.95,97.4,196.45,97.4,183.45z&#10;&#9;&#9;&#9; M358.7,277.95c0-63.6-51.6-115.2-115.2-115.2s-115.2,51.6-115.2,115.2s51.6,115.2,115.2,115.2S358.7,341.55,358.7,277.95z"/>
    </g>
  </g>
</svg>